<svg xmlns="http://www.w3.org/2000/svg" width="112" height="112" viewBox="0 0 112 112"><defs><mask id="40vcb" width="2.06" height="2.06" x="-1.03" y="-1.03"><path fill="#fff" d="M0 0h112v112H0z"/><path d="M56 3c29.271 0 53 23.728 53 53 0 29.27-23.729 53-53 53S3 85.27 3 56C3 26.727 26.729 3 56 3z"/></mask><filter id="40vca" width="132" height="132" x="-10" y="-10" filterUnits="userSpaceOnUse"><feOffset in="SourceGraphic" result="FeOffset1140Out"/><feGaussianBlur in="FeOffset1140Out" result="FeGaussianBlur1141Out" stdDeviation="0 0"/></filter><clipPath id="40vcc"><path fill="#fff" d="M56 3c29.271 0 53 23.728 53 53 0 29.27-23.729 53-53 53S3 85.27 3 56C3 26.727 26.729 3 56 3z"/></clipPath></defs><g><g><g filter="url(#40vca)"><path fill="none" stroke="#38c695" stroke-width="6" d="M56 3c29.271 0 53 23.728 53 53 0 29.27-23.729 53-53 53S3 85.27 3 56C3 26.727 26.729 3 56 3z" mask="url(&quot;#40vcb&quot;)"/><path fill="#38c695" d="M56 3c29.271 0 53 23.728 53 53 0 29.27-23.729 53-53 53S3 85.27 3 56C3 26.727 26.729 3 56 3z"/></g><path fill="#feb960" d="M56 3c29.271 0 53 23.728 53 53 0 29.27-23.729 53-53 53S3 85.27 3 56C3 26.727 26.729 3 56 3z"/><path fill="#38c695" d="M56 3c29.271 0 53 23.728 53 53 0 29.27-23.729 53-53 53S3 85.27 3 56C3 26.727 26.729 3 56 3z"/><path fill="none" stroke="#fff" stroke-linecap="round" stroke-linejoin="round" stroke-miterlimit="20" stroke-width="6" d="M56 3c29.271 0 53 23.728 53 53 0 29.27-23.729 53-53 53S3 85.27 3 56C3 26.727 26.729 3 56 3z" clip-path="url(&quot;#40vcc&quot;)"/></g></g></svg>