<svg xmlns="http://www.w3.org/2000/svg" width="112" height="112" viewBox="0 0 112 112"><defs><mask id="jq4yb" width="2.06" height="2.06" x="-1.03" y="-1.03"><path fill="#fff" d="M0 0h112v112H0z"/><path d="M56 3c29.271 0 53 23.728 53 53 0 29.27-23.729 53-53 53S3 85.27 3 56C3 26.727 26.729 3 56 3z"/></mask><filter id="jq4ya" width="132" height="132" x="-10" y="-10" filterUnits="userSpaceOnUse"><feOffset in="SourceGraphic" result="FeOffset1164Out"/><feGaussianBlur in="FeOffset1164Out" result="FeGaussianBlur1165Out" stdDeviation="0 0"/></filter><clipPath id="jq4yc"><path fill="#fff" d="M56 3c29.271 0 53 23.728 53 53 0 29.27-23.729 53-53 53S3 85.27 3 56C3 26.727 26.729 3 56 3z"/></clipPath></defs><g><g><g filter="url(#jq4ya)"><path fill="none" stroke="#fc5f45" stroke-width="6" d="M56 3c29.271 0 53 23.728 53 53 0 29.27-23.729 53-53 53S3 85.27 3 56C3 26.727 26.729 3 56 3z" mask="url(&quot;#jq4yb&quot;)"/><path fill="#fc5f45" d="M56 3c29.271 0 53 23.728 53 53 0 29.27-23.729 53-53 53S3 85.27 3 56C3 26.727 26.729 3 56 3z"/></g><path fill="#feb960" d="M56 3c29.271 0 53 23.728 53 53 0 29.27-23.729 53-53 53S3 85.27 3 56C3 26.727 26.729 3 56 3z"/><path fill="#fc5f45" d="M56 3c29.271 0 53 23.728 53 53 0 29.27-23.729 53-53 53S3 85.27 3 56C3 26.727 26.729 3 56 3z"/><path fill="none" stroke="#fff" stroke-linecap="round" stroke-linejoin="round" stroke-miterlimit="20" stroke-width="6" d="M56 3c29.271 0 53 23.728 53 53 0 29.27-23.729 53-53 53S3 85.27 3 56C3 26.727 26.729 3 56 3z" clip-path="url(&quot;#jq4yc&quot;)"/></g></g></svg>